<svg width="71" height="65" viewBox="0 0 71 65" fill="none" xmlns="http://www.w3.org/2000/svg">
<g clip-path="url(#clip0_578_24045)">
<g style="mix-blend-mode:multiply">
<path d="M64.1012 7.20111H63.2668V3.55059C63.2668 3.3174 63.2033 3.09925 63.0927 2.91011C62.866 2.5211 62.4401 2.25781 61.9506 2.25781H61.6221H61.2925C60.5654 2.25781 59.9763 2.83596 59.9763 3.54952V7.20003H52.6824V3.55059C52.6824 3.31202 52.6156 3.08958 52.5006 2.89829C52.2717 2.51572 51.8502 2.25889 51.3662 2.25889H51.0377H50.7081C49.981 2.25889 49.3918 2.83704 49.3918 3.55059V7.20111H42.0979V3.55059C42.0979 3.31202 42.0312 3.08958 41.9162 2.89829C41.6873 2.51572 41.2657 2.25889 40.7817 2.25889H40.4532H40.1236C39.3965 2.25889 38.8074 2.83704 38.8074 3.55059V7.20111H31.5135V3.55059C31.5135 3.31847 31.45 3.1014 31.3416 2.91334C31.1149 2.52217 30.6879 2.25781 30.1973 2.25781H29.8688H29.5392C28.8121 2.25781 28.223 2.83596 28.223 3.54952V7.20003H20.9291V3.55059C20.9291 3.3174 20.8656 3.09925 20.755 2.91011C20.5283 2.5211 20.1024 2.25781 19.6129 2.25781H19.2844H18.9548C18.2277 2.25781 17.6386 2.83596 17.6386 3.54952V7.20003H16.8042C13.2717 7.20003 10.4071 10.0113 10.4071 13.478V58.7672C10.4071 62.2339 13.2717 65.0452 16.8042 65.0452H64.1034C67.6359 65.0452 70.5005 62.2339 70.5005 58.7672V13.4791C70.5005 10.0123 67.6359 7.20111 64.1034 7.20111H64.1012Z" fill="#D1D3D4"/>
</g>
<path d="M61.7987 6.07129H14.4995C10.9665 6.07129 8.10241 8.88204 8.10241 12.3493V56.509C8.10241 59.9762 10.9665 62.787 14.4995 62.787H61.7987C65.3317 62.787 68.1958 59.9762 68.1958 56.509V12.3493C68.1958 8.88204 65.3317 6.07129 61.7987 6.07129Z" fill="#D1D3D4"/>
<path d="M61.7987 4.94336H14.4995C10.9665 4.94336 8.10241 7.75411 8.10241 11.2213V55.3811C8.10241 58.8483 10.9665 61.6591 14.4995 61.6591H61.7987C65.3317 61.6591 68.1958 58.8483 68.1958 55.3811V11.2213C68.1958 7.75411 65.3317 4.94336 61.7987 4.94336Z" fill="white"/>
<path d="M68.1958 11.2204V21.3993H8.10241V11.2204C8.10241 7.75361 10.967 4.94238 14.4995 4.94238H61.7987C65.3312 4.94238 68.1958 7.75361 68.1958 11.2204Z" fill="#25243A"/>
<path d="M17.2679 10.3033C18.2548 10.147 18.9257 9.2351 18.7663 8.26658C18.607 7.29806 17.6779 6.63967 16.691 6.79601C15.7041 6.95236 15.0332 7.86424 15.1925 8.83276C15.3518 9.80128 16.281 10.4597 17.2679 10.3033Z" fill="#414042"/>
<path d="M17.308 0H16.6499C15.923 0 15.3337 0.578316 15.3337 1.2917V8.4165C15.3337 9.12989 15.923 9.7082 16.6499 9.7082H17.308C18.035 9.7082 18.6242 9.12989 18.6242 8.4165V1.2917C18.6242 0.578316 18.035 0 17.308 0Z" fill="#546885"/>
<g style="mix-blend-mode:multiply">
<path d="M18.6239 1.29278V8.4165C18.6239 9.13005 18.0348 9.70928 17.3077 9.70928H16.9792V0H17.3077C18.0337 0 18.6239 0.578151 18.6239 1.29278Z" fill="#F1F2F2"/>
</g>
<path d="M27.7434 10.316C28.7383 10.2196 29.4651 9.35 29.3668 8.37369C29.2686 7.39738 28.3825 6.68409 27.3876 6.7805C26.3928 6.87692 25.666 7.74653 25.7642 8.72284C25.8625 9.69915 26.7486 10.4124 27.7434 10.316Z" fill="#414042"/>
<path d="M27.8947 0H27.2366C26.5097 0 25.9204 0.578316 25.9204 1.2917V8.4165C25.9204 9.12989 26.5097 9.7082 27.2366 9.7082H27.8947C28.6216 9.7082 29.2109 9.12989 29.2109 8.4165V1.2917C29.2109 0.578316 28.6216 0 27.8947 0Z" fill="#546885"/>
<g style="mix-blend-mode:multiply">
<path d="M29.2106 1.29278V8.4165C29.2106 9.13005 28.6215 9.70928 27.8944 9.70928H27.5659V0H27.8944C28.6204 0 29.2106 0.578151 29.2106 1.29278Z" fill="#F1F2F2"/>
</g>
<path d="M38.3705 10.3121C39.3628 10.1927 40.0685 9.30652 39.9469 8.33276C39.8252 7.35899 38.9222 6.66639 37.93 6.78578C36.9377 6.90517 36.232 7.79135 36.3536 8.76511C36.4753 9.73888 37.3783 10.4315 38.3705 10.3121Z" fill="#414042"/>
<path d="M38.4788 0H37.8207C37.0937 0 36.5045 0.578316 36.5045 1.2917V8.4165C36.5045 9.12989 37.0937 9.7082 37.8207 9.7082H38.4788C39.2057 9.7082 39.795 9.12989 39.795 8.4165V1.2917C39.795 0.578316 39.2057 0 38.4788 0Z" fill="#546885"/>
<g style="mix-blend-mode:multiply">
<path d="M39.7964 1.29278V8.4165C39.7964 9.13005 39.2073 9.70928 38.4802 9.70928H38.1517V0H38.4802C39.2062 0 39.7964 0.578151 39.7964 1.29278Z" fill="#F1F2F2"/>
</g>
<path d="M49.6278 10.0943C50.4969 9.60941 50.8008 8.52496 50.3067 7.6721C49.8127 6.81925 48.7076 6.52095 47.8386 7.00583C46.9696 7.49071 46.6656 8.57517 47.1597 9.42802C47.6538 10.2809 48.7588 10.5792 49.6278 10.0943Z" fill="#414042"/>
<path d="M49.0629 0H48.4048C47.6779 0 47.0886 0.578316 47.0886 1.2917V8.4165C47.0886 9.12989 47.6779 9.7082 48.4048 9.7082H49.0629C49.7899 9.7082 50.3792 9.12989 50.3792 8.4165V1.2917C50.3792 0.578316 49.7899 0 49.0629 0Z" fill="#546885"/>
<g style="mix-blend-mode:multiply">
<path d="M50.3786 1.29278V8.4165C50.3786 9.13005 49.7895 9.70928 49.0624 9.70928H48.7339V0H49.0624C49.7884 0 50.3786 0.578151 50.3786 1.29278Z" fill="#F1F2F2"/>
</g>
<path d="M59.4736 10.3193C60.4696 10.2353 61.2077 9.37486 61.1221 8.3974C61.0366 7.41995 60.1598 6.69563 59.1638 6.7796C58.1678 6.86357 57.4297 7.72403 57.5153 8.70148C57.6008 9.67894 58.4776 10.4033 59.4736 10.3193Z" fill="#414042"/>
<path d="M59.6476 0H58.9895C58.2625 0 57.6732 0.578316 57.6732 1.2917V8.4165C57.6732 9.12989 58.2625 9.7082 58.9895 9.7082H59.6476C60.3745 9.7082 60.9638 9.12989 60.9638 8.4165V1.2917C60.9638 0.578316 60.3745 0 59.6476 0Z" fill="#546885"/>
<g style="mix-blend-mode:multiply">
<path d="M60.9651 1.29278V8.4165C60.9651 9.13005 60.376 9.70928 59.6489 9.70928H59.3204V0H59.6489C60.3749 0 60.9651 0.578151 60.9651 1.29278Z" fill="#F1F2F2"/>
</g>
<g style="mix-blend-mode:multiply">
<path d="M68.1958 20.4111H8.10241V21.3987H68.1958V20.4111Z" fill="#E6E7E8"/>
</g>
<g style="mix-blend-mode:multiply">
<path d="M68.1958 21.3984H8.10241V22.386H68.1958V21.3984Z" fill="#E6E7E8"/>
</g>
<path d="M18.2865 27.123H15.6727C14.7323 27.123 13.9699 27.8712 13.9699 28.7941V31.3592C13.9699 32.2821 14.7323 33.0303 15.6727 33.0303H18.2865C19.2269 33.0303 19.9892 32.2821 19.9892 31.3592V28.7941C19.9892 27.8712 19.2269 27.123 18.2865 27.123Z" fill="#B2BDCF"/>
<path d="M28.8724 27.123H26.2586C25.3182 27.123 24.5559 27.8712 24.5559 28.7941V31.3592C24.5559 32.2821 25.3182 33.0303 26.2586 33.0303H28.8724C29.8128 33.0303 30.5752 32.2821 30.5752 31.3592V28.7941C30.5752 27.8712 29.8128 27.123 28.8724 27.123Z" fill="#B2BDCF"/>
<path d="M39.4567 27.123H36.8429C35.9025 27.123 35.1402 27.8712 35.1402 28.7941V31.3592C35.1402 32.2821 35.9025 33.0303 36.8429 33.0303H39.4567C40.3971 33.0303 41.1595 32.2821 41.1595 31.3592V28.7941C41.1595 27.8712 40.3971 27.123 39.4567 27.123Z" fill="#B2BDCF"/>
<path d="M50.0427 27.123H47.4289C46.4885 27.123 45.7261 27.8712 45.7261 28.7941V31.3592C45.7261 32.2821 46.4885 33.0303 47.4289 33.0303H50.0427C50.9831 33.0303 51.7454 32.2821 51.7454 31.3592V28.7941C51.7454 27.8712 50.9831 27.123 50.0427 27.123Z" fill="#B2BDCF"/>
<path d="M60.627 27.123H58.0132C57.0728 27.123 56.3104 27.8712 56.3104 28.7941V31.3592C56.3104 32.2821 57.0728 33.0303 58.0132 33.0303H60.627C61.5674 33.0303 62.3297 32.2821 62.3297 31.3592V28.7941C62.3297 27.8712 61.5674 27.123 60.627 27.123Z" fill="#B2BDCF"/>
<path d="M18.2865 37.626H15.6727C14.7323 37.626 13.9699 38.3741 13.9699 39.297V41.8622C13.9699 42.7851 14.7323 43.5332 15.6727 43.5332H18.2865C19.2269 43.5332 19.9892 42.7851 19.9892 41.8622V39.297C19.9892 38.3741 19.2269 37.626 18.2865 37.626Z" fill="#B2BDCF"/>
<path d="M28.8724 37.626H26.2586C25.3182 37.626 24.5559 38.3741 24.5559 39.297V41.8622C24.5559 42.7851 25.3182 43.5332 26.2586 43.5332H28.8724C29.8128 43.5332 30.5752 42.7851 30.5752 41.8622V39.297C30.5752 38.3741 29.8128 37.626 28.8724 37.626Z" fill="#B2BDCF"/>
<path d="M39.4567 37.626H36.8429C35.9025 37.626 35.1402 38.3741 35.1402 39.297V41.8622C35.1402 42.7851 35.9025 43.5332 36.8429 43.5332H39.4567C40.3971 43.5332 41.1595 42.7851 41.1595 41.8622V39.297C41.1595 38.3741 40.3971 37.626 39.4567 37.626Z" fill="#B2BDCF"/>
<path d="M50.0427 37.626H47.4289C46.4885 37.626 45.7261 38.3741 45.7261 39.297V41.8622C45.7261 42.7851 46.4885 43.5332 47.4289 43.5332H50.0427C50.9831 43.5332 51.7454 42.7851 51.7454 41.8622V39.297C51.7454 38.3741 50.9831 37.626 50.0427 37.626Z" fill="#B2BDCF"/>
<path d="M60.627 37.626H58.0132C57.0728 37.626 56.3104 38.3741 56.3104 39.297V41.8622C56.3104 42.7851 57.0728 43.5332 58.0132 43.5332H60.627C61.5674 43.5332 62.3297 42.7851 62.3297 41.8622V39.297C62.3297 38.3741 61.5674 37.626 60.627 37.626Z" fill="#B2BDCF"/>
<path d="M18.2865 48.1279H15.6727C14.7323 48.1279 13.9699 48.8761 13.9699 49.799V52.3641C13.9699 53.287 14.7323 54.0352 15.6727 54.0352H18.2865C19.2269 54.0352 19.9892 53.287 19.9892 52.3641V49.799C19.9892 48.8761 19.2269 48.1279 18.2865 48.1279Z" fill="#B2BDCF"/>
<path d="M28.8724 48.1279H26.2586C25.3182 48.1279 24.5559 48.8761 24.5559 49.799V52.3641C24.5559 53.287 25.3182 54.0352 26.2586 54.0352H28.8724C29.8128 54.0352 30.5752 53.287 30.5752 52.3641V49.799C30.5752 48.8761 29.8128 48.1279 28.8724 48.1279Z" fill="#25243A"/>
<path d="M39.4567 48.1279H36.8429C35.9025 48.1279 35.1402 48.8761 35.1402 49.799V52.3641C35.1402 53.287 35.9025 54.0352 36.8429 54.0352H39.4567C40.3971 54.0352 41.1595 53.287 41.1595 52.3641V49.799C41.1595 48.8761 40.3971 48.1279 39.4567 48.1279Z" fill="#B2BDCF"/>
<path d="M50.0427 48.1279H47.4289C46.4885 48.1279 45.7261 48.8761 45.7261 49.799V52.3641C45.7261 53.287 46.4885 54.0352 47.4289 54.0352H50.0427C50.9831 54.0352 51.7454 53.287 51.7454 52.3641V49.799C51.7454 48.8761 50.9831 48.1279 50.0427 48.1279Z" fill="#B2BDCF"/>
<path d="M60.627 48.1279H58.0132C57.0728 48.1279 56.3104 48.8761 56.3104 49.799V52.3641C56.3104 53.287 57.0728 54.0352 58.0132 54.0352H60.627C61.5674 54.0352 62.3297 53.287 62.3297 52.3641V49.799C62.3297 48.8761 61.5674 48.1279 60.627 48.1279Z" fill="#B2BDCF"/>
<g style="mix-blend-mode:multiply">
<path d="M24.5655 47.5064L23.1858 41.6239C24.0804 39.984 24.5655 38.141 24.5655 36.2615C24.5655 30.0028 19.3762 24.9102 12.9988 24.9102C6.62145 24.9102 1.42122 30.0028 1.42122 36.2615C1.42122 42.5201 6.61488 47.6235 12.9988 47.6235C14.7213 47.6235 16.4317 47.2281 17.9713 46.5059L23.7081 48.2833C24.203 48.437 24.6826 48.0039 24.5655 47.5064Z" fill="#D1D3D4"/>
</g>
<path d="M23.6443 46.6031L22.2645 40.7205C23.1592 39.0807 23.6443 37.2377 23.6443 35.3581C23.6443 29.0995 18.455 24.0068 12.0776 24.0068C5.70023 24.0068 0.5 29.0995 0.5 35.3592C0.5 41.6189 5.69366 46.7213 12.0776 46.7213C13.8001 46.7213 15.5105 46.3269 17.0501 45.6037L22.7869 47.3811C23.2818 47.5348 23.7614 47.1017 23.6443 46.6041V46.6031Z" fill="#F37A1D"/>
<g style="mix-blend-mode:multiply">
<path d="M11.464 37.4506L11.1015 32.1183C11.0336 31.0791 10.9997 30.3333 10.9997 29.8809C10.9997 29.2652 11.1639 28.7848 11.4935 28.4398C11.822 28.0949 12.2557 27.9219 12.7922 27.9219C13.4427 27.9219 13.8774 28.1432 14.0964 28.5838C14.3154 29.0255 14.4249 29.6617 14.4249 30.4935C14.4249 30.9835 14.3986 31.48 14.345 31.9851L13.8577 37.4732C13.8051 38.1266 13.6912 38.6273 13.5171 38.9766C13.343 39.3258 13.0561 39.4999 12.6553 39.4999C12.2546 39.4999 11.9633 39.3312 11.8045 38.9938C11.6457 38.6563 11.5319 38.1427 11.464 37.4517V37.4506Z" fill="#D1D3D4"/>
<path d="M12.7233 44.0567C12.2623 44.0567 11.8593 43.9106 11.5155 43.6172C11.1716 43.3238 10.9997 42.9144 10.9997 42.3868C10.9997 41.9268 11.164 41.5357 11.4936 41.2122C11.8221 40.8898 12.225 40.7275 12.7014 40.7275C13.1777 40.7275 13.584 40.8887 13.9212 41.2122C14.2574 41.5346 14.426 41.9268 14.426 42.3868C14.426 42.9058 14.2563 43.3142 13.9157 43.6108C13.5752 43.9074 13.1788 44.0557 12.7244 44.0557L12.7233 44.0567Z" fill="#D1D3D4"/>
</g>
<path d="M10.8898 36.8862L10.5274 31.5539C10.4595 30.5147 10.4255 29.7689 10.4255 29.3165C10.4255 28.7007 10.5898 28.2203 10.9194 27.8754C11.2479 27.5304 11.6815 27.3574 12.2181 27.3574C12.8685 27.3574 13.3032 27.5788 13.5222 28.0194C13.7412 28.4611 13.8507 29.0972 13.8507 29.929C13.8507 30.419 13.8245 30.9155 13.7708 31.4206L13.2835 36.9087C13.231 37.5621 13.1171 38.0629 12.943 38.4121C12.7689 38.7614 12.482 38.9355 12.0812 38.9355C11.6804 38.9355 11.3891 38.7668 11.2304 38.4293C11.0716 38.0919 10.9577 37.5782 10.8898 36.8872V36.8862Z" fill="white"/>
<path d="M12.1474 43.4923C11.6864 43.4923 11.2834 43.3461 10.9396 43.0528C10.5957 42.7594 10.4238 42.35 10.4238 41.8223C10.4238 41.3624 10.5881 40.9712 10.9177 40.6477C11.2462 40.3254 11.6491 40.1631 12.1255 40.1631C12.6018 40.1631 13.008 40.3243 13.3453 40.6477C13.6815 40.9701 13.8501 41.3624 13.8501 41.8223C13.8501 42.3414 13.6804 42.7497 13.3398 43.0463C12.9993 43.3429 12.6029 43.4912 12.1485 43.4912L12.1474 43.4923Z" fill="white"/>
</g>
<defs>
<clipPath id="clip0_578_24045">
<rect width="70" height="65" fill="white" transform="translate(0.5)"/>
</clipPath>
</defs>
</svg>
