<svg width="216" height="63" viewBox="0 0 216 63" fill="none" xmlns="http://www.w3.org/2000/svg">
<path fill-rule="evenodd" clip-rule="evenodd" d="M31.2858 30.206C30.8918 30.206 30.8355 29.8663 30.8355 29.8663V23.3554C30.8355 23.3554 30.8355 23.1289 31.2858 23.1289C31.9613 23.1289 33.9315 23.1289 33.9315 23.1289C35.5076 23.1289 37.4215 24.0914 38.1532 25.2804L40.5737 29.47C40.6863 29.6399 40.7989 29.8097 40.9115 29.923C41.024 30.0362 40.8552 30.206 40.4611 30.206C40.5737 30.206 33.65 30.206 31.2858 30.206Z" fill="#1274F1"/>
<path fill-rule="evenodd" clip-rule="evenodd" d="M57.3219 12.4269C56.8594 11.8512 56.3969 11.3331 55.8765 10.815C53.3327 8.22436 50.2107 6.38215 46.8574 5.34591C44.8339 4.71265 42.6947 4.4248 40.5556 4.4248H40.4978C33.1553 4.4248 26.68 8.19255 22.7486 13.7767H27.5509C29.6901 13.7767 30.7211 14.8075 30.8367 16.3043C30.8367 16.3619 30.8367 16.4419 30.8367 16.557C30.8367 16.557 30.9005 19.5079 30.9005 20.5441C30.9005 21.0047 31.4208 20.9471 31.4208 20.9471H35.2944C37.1445 20.9471 39.3415 22.0409 40.1509 23.4226L42.9838 28.2008C43.851 29.5824 45.0651 29.8703 47.2043 30.3308C48.9966 30.7338 50.6732 30.7338 50.6732 35.2242V38.1026L45.7589 43.3414H43.5041C43.3307 43.3414 43.3307 43.1687 43.3307 43.0536C43.3307 39.5419 39.9196 36.6634 35.6991 36.6634C33.6756 36.6634 31.8255 37.3542 30.438 38.4481C29.9176 38.851 29.4551 39.3692 29.1082 39.8873C28.4722 40.8084 28.0675 41.9598 28.0675 43.1111C28.0675 43.2263 28.0927 43.6018 27.8037 43.6018C27.8037 43.6018 27.6451 43.6018 27.2982 43.6018L37.8961 54.7976L40.4399 57.5034L42.9838 54.7401L56.3969 40.3478C56.4547 40.2903 56.4547 40.2902 56.5125 40.2327C57.2641 39.4267 57.9001 38.5632 58.536 37.6996C59.5767 36.2029 60.3283 34.5909 60.9643 32.9214C61.0799 32.6336 61.1377 32.4033 61.2533 32.1155C61.8315 30.2157 62.1205 28.2008 62.1784 26.1859C62.1784 21.1198 60.5017 16.284 57.3219 12.4269ZM32.5771 43.5141C32.5771 43.4566 32.5771 43.399 32.5771 43.2838C32.5771 42.5354 32.8084 41.8446 33.2709 41.3265C33.849 40.5205 34.8319 40.06 35.8726 40.06C37.6648 40.06 39.1102 41.4992 39.1102 43.2838C39.1102 44.4352 38.532 45.4139 37.607 45.9896C37.0867 46.335 36.5085 46.5077 35.8148 46.5077C35.6413 46.5077 35.5257 46.5077 35.3522 46.4501C33.849 46.335 32.6927 45.0685 32.5771 43.5141Z" fill="#18365A"/>
<path d="M40.4288 0L40.4865 3.7457V4.49482L40.4288 7.49134C42.2186 7.49134 44.1239 7.72184 45.7405 8.24046L46.8952 4.84052L47.9345 1.09493C45.625 0.345801 42.9692 0 40.4288 0ZM40.4288 0V7.49134H40.5443L40.4288 0ZM18.3159 12.9657H27.5537C30.7869 9.56585 35.4058 7.49134 40.4288 7.49134V0C30.9601 0 22.6461 5.24395 18.3159 12.9657ZM43.0269 54.1678L40.4865 51.4018L35.5033 45.7487C34.0021 45.5182 32.6922 44.4868 32.6344 42.9309L29.1703 39.1853C28.5352 40.1073 28.131 41.2598 28.131 42.4123C28.131 42.5275 28.131 42.7004 27.8423 42.7004C27.8423 42.7004 27.6691 42.7004 27.3227 42.7004H22.242L37.7275 59.4248L43.2579 54.3407L43.0269 54.1678ZM56.4216 39.7615L53.7081 37.226L50.5326 40.6259L48.8582 42.4123L40.4865 51.4594L37.9461 54.2255L37.7729 54.456L40.4865 56.9915L43.2579 59.527L59.193 42.3546L56.4216 39.7615ZM56.7969 39.3005L53.8443 37.0758L53.7081 37.226L56.3639 39.7039L59.193 42.3546C59.2507 42.297 59.8281 41.4902 59.8858 41.4326L56.7969 39.3005ZM58.5001 37.1107L55.3824 35.0362C54.9205 35.7854 54.3432 36.5345 53.7081 37.226L59.8858 41.4326C60.7519 40.5106 60.9251 40.2801 61.6179 39.1853L58.5001 37.1107ZM60.8673 32.3279L57.3454 31.1177C56.8835 32.5007 56.1907 33.7685 55.3824 35.0362L58.5001 37.1107L61.6179 39.1853C62.8303 37.3989 63.7541 35.5549 64.4469 33.538L60.8673 32.3279ZM61.156 31.5211L57.5764 30.4262C57.5186 30.6567 57.4609 30.8872 57.3454 31.1177L60.8673 32.3279L64.4469 33.538C64.5624 33.1922 64.6131 33.0134 64.7356 32.616L61.156 31.5211ZM62.0798 25.5857L58.3269 25.5281C58.3269 27.1992 58.0383 28.8703 57.5764 30.4262L61.156 31.5211L64.7356 32.616C65.4285 30.3686 65.7749 28.0059 65.8326 25.6433L62.0798 25.5857ZM60.1745 9.4506L57.2877 11.8132L54.4009 14.1759C56.999 17.4029 58.3847 21.379 58.3269 25.5857L62.0798 25.6433L65.8326 25.7009C65.8904 19.7079 63.9273 14.003 60.1745 9.4506ZM58.5001 7.6066L55.8443 10.1421L53.1884 12.7929C53.5926 13.1963 53.9967 13.7149 54.4009 14.1759L57.3404 11.7701L60.1745 9.4506C59.6549 8.93197 59.0775 8.24048 58.5001 7.6066ZM47.9345 1.09493L46.8375 4.66771L45.7405 8.24046C48.5118 9.10484 51.0522 10.6607 53.1884 12.7929L55.8443 10.1997L58.5001 7.6066C55.4979 4.55246 51.9183 2.30506 47.9345 1.09493ZM40.4865 56.8762L37.7152 59.4117L40.3133 62.1777L43.1424 59.6422L40.4865 56.8762ZM40.4865 56.8762L43.1424 59.6422L43.2001 59.5846L43.2579 59.527L40.4865 56.8762Z" fill="#F37A1D"/>
<path fill-rule="evenodd" clip-rule="evenodd" d="M31.2858 30.206C30.8918 30.206 30.8355 29.8663 30.8355 29.8663V23.3554C30.8355 23.3554 30.8355 23.1289 31.2858 23.1289C31.9613 23.1289 33.9315 23.1289 33.9315 23.1289C35.5076 23.1289 37.4215 24.0914 38.1532 25.2804L40.5737 29.47C40.6863 29.6399 40.7989 29.8097 40.9115 29.923C41.024 30.0362 40.8552 30.206 40.4611 30.206C40.5737 30.206 33.65 30.206 31.2858 30.206Z" fill="#18365A"/>
<path fill-rule="evenodd" clip-rule="evenodd" d="M45.4928 43.5662L40.1878 49.4171L37.42 46.3746C38.2849 45.7895 38.9192 44.7949 38.9192 43.6248C38.9192 41.811 37.4776 40.3483 35.6901 40.3483C34.6522 40.3483 33.6719 40.8749 33.0953 41.6355L30.3275 38.5931C31.7114 37.4814 33.5566 36.7793 35.5748 36.7793C39.7842 36.7793 43.1863 39.7047 43.1863 43.2737C43.1863 43.3907 43.1863 43.5662 43.3593 43.5662H45.4928Z" fill="#18365A"/>
<path fill-rule="evenodd" clip-rule="evenodd" d="M55.096 28.0614C55.096 29.616 54.8079 31.1705 54.2893 32.6674C53.8283 34.0492 53.1367 35.3159 52.2724 36.525C52.0419 36.8704 51.7537 37.2159 51.4656 37.5038C51.408 37.5613 51.3503 37.6765 51.2351 37.7341L50.5436 38.4825V35.6038C50.5436 31.1129 48.8724 31.1129 47.086 30.7099C44.9539 30.2493 43.7437 29.9614 42.8793 28.5796L40.0557 23.8009C39.1913 22.4191 37.0927 21.3775 35.2487 21.3775H31.383C31.383 21.3775 30.9675 21.3775 30.9323 20.9272C30.9323 19.9485 30.8355 16.8918 30.8355 16.8918C30.8355 16.8343 30.8355 16.7767 30.8355 16.6615C33.4287 14.4737 36.7133 13.207 40.3438 13.207C44.32 13.207 48.008 14.7616 50.8317 17.5827C51.869 18.6191 52.7334 19.8282 53.4249 21.0948C54.5774 23.2251 55.1537 25.6433 55.096 28.0614Z" fill="#18365A"/>
<path d="M20.6175 18.1375H13.7603C12.6079 18.1375 11.6283 17.0923 11.6283 15.8627C11.6283 14.6331 12.6079 13.5879 13.7603 13.5879H20.6175C21.7699 13.5879 22.7495 14.6331 22.7495 15.8627C22.7495 17.1538 21.7699 18.1375 20.6175 18.1375Z" fill="#F37A1D"/>
<path d="M20.5675 26.7322H8.24769C7.06876 26.7322 6.06668 25.687 6.06668 24.4574C6.06668 23.2278 7.06876 22.1826 8.24769 22.1826H20.5675C21.7464 22.1826 22.7485 23.2278 22.7485 24.4574C22.7485 25.687 21.7464 26.7322 20.5675 26.7322Z" fill="#F37A1D"/>
<path d="M20.6332 37.7882H2.11475C0.971636 37.7882 0 36.8592 0 35.7662C0 34.6732 0.971636 33.7441 2.11475 33.7441H20.6332C21.7763 33.7441 22.748 34.6732 22.748 35.7662C22.748 36.8592 21.7763 37.7882 20.6332 37.7882Z" fill="#F37A1D"/>
<path d="M82.0502 24.5625C82.9474 20.397 87.3372 18.5066 92.3358 18.5066C95.0594 18.5066 97.4305 19.1474 98.584 19.7882L97.6548 24.0499C96.8217 23.0886 94.6428 22.2875 92.1756 22.2875C89.3238 22.2875 87.3051 23.377 86.9847 24.8509C86.1837 28.4717 96.6935 28.5358 95.3157 35.1044C94.3865 39.366 89.9006 41.0643 84.7738 41.0643C82.1143 41.0643 79.9995 40.4234 78.7819 39.8467L79.7111 35.5851C80.6404 36.5463 82.5949 37.2833 85.3506 37.2833C87.9139 37.2833 90.0608 36.5143 90.3812 34.8481C91.1182 30.9389 80.6404 31.1632 82.0502 24.5625ZM99.8154 41.0322L104.59 18.6027H109.556L107.826 26.8055H114.939L116.702 18.6027H121.668L116.894 41.0322H111.927L114.138 30.5544H107.025L104.782 41.0322H99.8154ZM122.921 41.0322L127.695 18.6027H140.64L139.839 22.3516H131.861L130.931 26.7734H137.949L137.148 30.5224H130.13L128.688 37.2512H136.667L135.866 41.0322H122.921ZM141.082 41.0322L145.857 18.6027H158.802L158.001 22.3516H150.022L149.093 26.7734H156.11L155.309 30.5224H148.292L146.85 37.2512H154.828L154.027 41.0322H141.082ZM164.55 18.6027H169.516L165.543 37.2512H173.522L172.721 41.0322H159.776L164.55 18.6027ZM178.469 41.0322L183.243 18.6027H188.21L196.252 34.5277L199.649 18.6027H204.615L199.841 41.0322L194.875 41.0002L186.832 25.0432L183.436 41.0322H178.469ZM205.548 41.0322L210.323 18.6027H215.289L210.515 41.0322H205.548Z" fill="#18365A"/>
</svg>
